<?xml version="1.0" standalone="no"?>
<!DOCTYPE svg PUBLIC "-//W3C//DTD SVG 20010904//EN"
 "http://www.w3.org/TR/2001/REC-SVG-20010904/DTD/svg10.dtd">
<svg version="1.0" xmlns="http://www.w3.org/2000/svg"
 width="20" height="20" viewBox="0 0 83.000000 83.000000"
 preserveAspectRatio="xMidYMid meet">

<g transform="translate(0.000000,83.000000) scale(0.100000,-0.100000)"
fill="#1bc943" stroke="none">
<path d="M273 811 c-105 -39 -190 -116 -241 -221 -25 -51 -27 -65 -27 -175 0
-112 2 -124 29 -180 38 -77 124 -163 201 -201 56 -27 68 -29 180 -29 112 0
124 2 180 29 77 38 163 124 201 201 27 56 29 68 29 180 0 112 -2 124 -29 180
-38 77 -124 163 -201 200 -52 25 -74 29 -165 32 -84 3 -115 0 -157 -16z m290
-59 c66 -30 151 -113 184 -181 25 -50 28 -67 28 -156 0 -89 -3 -106 -28 -156
-33 -67 -118 -151 -184 -181 -39 -18 -67 -22 -148 -23 -89 0 -106 3 -156 28
-67 33 -151 118 -181 184 -18 39 -22 66 -22 148 0 117 17 166 85 240 55 60 87
82 152 106 70 26 200 21 270 -9z"/>
<path d="M480 445 l-135 -135 -50 50 c-56 55 -64 58 -88 32 -15 -17 -12 -23
61 -95 l77 -77 160 160 c157 157 159 159 140 180 -10 11 -21 20 -24 20 -4 0
-67 -61 -141 -135z"/>
</g>
</svg>
